# xmcd
#
# Track frame offsets:
#	150
#	27205
#	50692
#	78432
#	95412
#	105810
#
# Disc length: 2822 seconds
#
# Revision: 13
# Processed by: cddbd v1.5.2PL0 Copyright (c) Steve Scherf et al.
# Submitted via: Jack! The Knife 20 Magnifico
#
DISCID=3b0b0406
DTITLE=Pink Floyd - Meddle
DYEAR=1971
DGENRE=Rock
TTITLE0=One Of These Days
TTITLE1=A Pillow Of Winds
TTITLE2=Fearless
TTITLE3=San Tropez
TTITLE4=Seamus
TTITLE5=Echoes
EXTD=Pink Floyd
EXTT0=Roger Waters
EXTT1=Gilmour, Waters
EXTT2=Gilmour, Waters, Rodgers, Hammestein
EXTT3=Roger Waters
EXTT4=Mason, Gilmour, Waters, Wright
EXTT5=Mason, Gilmour, Waters, Wright
PLAYORDER=
